<svg width="30" height="30" viewBox="0 0 30 30" fill="none" xmlns="http://www.w3.org/2000/svg">
<g clip-path="url(#clip0_410_113)">
<path d="M8.72632 6C9.59178 6 10.3922 6.06772 11.1236 6.26817C11.7873 6.39012 12.4208 6.6404 12.9886 7.00496C13.5222 7.33949 13.9218 7.80946 14.1872 8.41217C14.454 9.01487 14.5868 9.75301 14.5868 10.5562C14.5868 11.4948 14.3877 12.2979 13.9218 12.9006C13.5222 13.5047 12.8559 14.0396 12.0568 14.4419C13.189 14.7778 14.0545 15.3805 14.5868 16.1836C15.1204 16.9882 15.4536 17.9931 15.4536 19.1321C15.4536 20.0707 15.2531 20.8739 14.9199 21.5443C14.5868 22.2147 14.0545 22.8174 13.4545 23.2197C12.8027 23.6509 12.0823 23.9678 11.324 24.1569C10.525 24.3587 9.72586 24.4928 8.92677 24.4928H0V6H8.72632ZM8.19269 13.5033C8.92542 13.5033 9.52541 13.3029 9.99132 12.9683C10.4572 12.6338 10.6577 12.0297 10.6577 11.2929C10.6577 10.8907 10.59 10.4884 10.4572 10.2216C10.3245 9.95346 10.1241 9.75166 9.85859 9.55121C9.59178 9.41712 9.32496 9.28304 8.99178 9.21667C8.6586 9.14895 8.32678 9.14895 7.92588 9.14895H4.06316V13.5047H8.19405L8.19269 13.5033ZM8.39314 21.4102C8.79269 21.4102 9.19223 21.3425 9.52541 21.2761C9.86181 21.2122 10.18 21.0748 10.4572 20.8739C10.7286 20.6778 10.9557 20.4268 11.1236 20.1371C11.2563 19.8026 11.3904 19.4003 11.3904 18.9317C11.3904 17.9931 11.1236 17.3227 10.5913 16.8541C10.0577 16.4518 9.32496 16.2514 8.45951 16.2514H4.06316V21.4116H8.39314V21.4102ZM21.249 21.3425C21.7813 21.8788 22.5804 22.147 23.6463 22.147C24.379 22.147 25.0453 21.9466 25.5776 21.612C26.1113 21.2098 26.4444 20.8075 26.5772 20.4053H29.8412C29.3076 22.0129 28.5085 23.152 27.444 23.8888C26.3767 24.5592 25.1117 24.9614 23.5799 24.9614C22.5998 24.9644 21.628 24.7824 20.7154 24.4251C19.8942 24.117 19.1619 23.6108 18.5836 22.9515C17.965 22.3347 17.5078 21.5751 17.2522 20.7398C16.919 19.8689 16.7849 18.9317 16.7849 17.859C16.7849 16.8541 16.919 15.9168 17.2522 15.0446C17.5725 14.205 18.0465 13.4325 18.6499 12.7665C19.2499 12.1638 19.9826 11.6288 20.7817 11.2929C21.6712 10.9355 22.6213 10.7534 23.5799 10.7566C24.7122 10.7566 25.7117 10.9584 26.5772 11.427C27.444 11.8957 28.109 12.432 28.6426 13.2365C29.187 14.0092 29.5926 14.8708 29.8412 15.7827C29.974 16.72 30.0403 17.6586 29.974 18.7299H20.3158C20.3158 19.8026 20.7154 20.8075 21.249 21.3439V21.3425ZM25.4449 14.3078C24.979 13.8392 24.2463 13.571 23.3794 13.571C22.7808 13.571 22.3135 13.7051 21.914 13.9056C21.5145 14.1074 21.249 14.3755 20.9822 14.6437C20.737 14.9027 20.5748 15.2291 20.5163 15.5809C20.4486 15.9168 20.3822 16.1836 20.3822 16.4518H26.3767C26.244 15.4469 25.9108 14.7778 25.4449 14.3078ZM19.5831 7.27313H27.0431V9.08259H19.5845V7.27313H19.5831Z" fill="#3A67FA"/>
</g>
<defs>
<clipPath id="clip0_410_113">
<rect width="30" height="30" fill="white"/>
</clipPath>
</defs>
</svg>
