<svg width="30" height="30" viewBox="0 0 30 30" fill="none" xmlns="http://www.w3.org/2000/svg">
<g clip-path="url(#clip0_410_124)">
<path d="M17.1826 28.9952C14.9796 29.3393 12.7264 29.1584 10.6064 28.4671C8.48651 27.7758 6.55978 26.5937 4.98308 25.017C3.40638 23.4403 2.22427 21.5135 1.53297 19.3936C0.841675 17.2737 0.660728 15.0205 1.00486 12.8174C0.13638 11.1655 -0.180973 9.27911 0.0991876 7.43395C0.379348 5.5888 1.24233 3.88162 2.56201 2.56195C3.88168 1.24227 5.58886 0.379287 7.43401 0.0991266C9.27917 -0.181034 11.1656 0.136319 12.8175 1.0048C15.0206 0.660667 17.2738 0.841614 19.3937 1.53291C21.5136 2.22421 23.4403 3.40632 25.017 4.98302C26.5937 6.55972 27.7759 8.48645 28.4672 10.6064C29.1584 12.7263 29.3394 14.9795 28.9953 17.1826C29.8637 18.8345 30.1811 20.7209 29.9009 22.566C29.6208 24.4112 28.7578 26.1184 27.4381 27.4381C26.1184 28.7577 24.4113 29.6207 22.5661 29.9009C20.721 30.181 18.8346 29.8637 17.1826 28.9952ZM15.0867 23.5904H15.0201C19.8051 23.5904 22.1893 21.2812 22.1893 18.1872C22.1893 16.1913 21.2712 14.0703 17.6475 13.2589L14.3436 12.5258C13.0857 12.2393 11.6412 11.8594 11.6412 10.6682C11.6412 9.47689 12.6742 8.64718 14.5136 8.64718C18.229 8.64718 17.8907 11.193 19.7301 11.193C20.6898 11.193 21.5511 10.6232 21.5511 9.6435C21.5511 7.36095 17.8907 5.64488 14.7935 5.64488C11.4263 5.64488 7.84085 7.07605 7.84085 10.8831C7.84085 12.7125 8.49729 14.6651 12.1061 15.5698L16.5862 16.6878C17.9457 17.0243 18.2823 17.7857 18.2823 18.4738C18.2823 19.6184 17.1427 20.7364 15.0867 20.7364C11.0597 20.7364 11.6246 17.6424 9.46529 17.6424C8.49896 17.6424 7.7942 18.3055 7.7942 19.2602C7.7942 21.1162 10.0468 23.5887 15.0867 23.5887V23.5904Z" fill="#00AFF0"/>
</g>
<defs>
<clipPath id="clip0_410_124">
<rect width="30" height="30" fill="white"/>
</clipPath>
</defs>
</svg>
