<svg width="30" height="30" viewBox="0 0 30 30" fill="none" xmlns="http://www.w3.org/2000/svg">
<g clip-path="url(#clip0_410_102)">
<path d="M26.9835 14.358C26.8605 11.9969 26.0393 9.72541 24.624 7.8315C24.1928 8.29595 23.7318 8.73186 23.244 9.1365C21.7454 10.3813 20.0707 11.3973 18.2745 12.1515C18.525 12.6765 18.7545 13.185 18.957 13.665V13.6695C19.0141 13.8036 19.0691 13.9386 19.122 14.0745C21.393 13.8195 23.787 13.9125 26.1075 14.226C26.4165 14.268 26.7075 14.313 26.9835 14.358ZM12.906 3.183C14.3678 5.24276 15.7158 7.38095 16.944 9.588C18.7785 8.865 20.295 7.953 21.516 6.9375C21.9398 6.5882 22.3388 6.20978 22.71 5.805C20.5515 3.98957 17.8205 2.996 15 3C14.2981 2.99952 13.5974 3.06025 12.906 3.1815V3.183ZM3.3795 11.9955C4.40134 11.9697 5.42196 11.9082 6.4395 11.811C8.89896 11.591 11.3374 11.1788 13.7325 10.578C12.4808 8.40332 11.1293 6.28757 9.6825 4.2375C8.13708 5.0031 6.77439 6.09211 5.68687 7.43068C4.59934 8.76925 3.81243 10.3261 3.3795 11.9955ZM5.6745 22.5525C6.2565 21.702 7.0215 20.745 8.037 19.704C10.218 17.469 12.792 15.729 15.771 14.769L15.864 14.742C15.6165 14.196 15.384 13.7085 15.15 13.2495C12.396 14.052 9.495 14.553 6.6045 14.8125C5.1945 14.94 3.93 14.9955 3 15.0045C2.99735 17.7534 3.94244 20.4192 5.676 22.5525H5.6745ZM19.5075 26.1225C18.9291 23.2054 18.1103 20.3411 17.0595 17.559C14.0565 18.6495 11.664 20.244 9.8145 22.146C9.06811 22.8996 8.40572 23.732 7.839 24.6285C9.90721 26.1717 12.4195 27.0037 15 27C16.5449 27.0022 18.0755 26.7052 19.5075 26.1255V26.1225ZM22.317 24.51C24.6589 22.7096 26.2543 20.1086 26.7975 17.205C26.2875 17.0775 25.641 16.95 24.93 16.851C23.3492 16.6234 21.7452 16.6067 20.16 16.8015C21.0526 19.3197 21.7732 21.8957 22.317 24.5115V24.51ZM15 30C6.7155 30 0 23.2845 0 15C0 6.7155 6.7155 0 15 0C23.2845 0 30 6.7155 30 15C30 23.2845 23.2845 30 15 30Z" fill="#FA597D"/>
</g>
<defs>
<clipPath id="clip0_410_102">
<rect width="30" height="30" fill="white"/>
</clipPath>
</defs>
</svg>
