<svg width="156" height="156" viewBox="0 0 156 156" fill="none" xmlns="http://www.w3.org/2000/svg">
<path fill-rule="evenodd" clip-rule="evenodd" d="M78 156C121.078 156 156 121.078 156 78C156 34.9218 121.078 0 78 0C34.9218 0 0 34.9218 0 78C0 121.078 34.9218 156 78 156ZM78 123C102.853 123 123 102.853 123 78C123 53.1472 102.853 33 78 33C53.1472 33 33 53.1472 33 78C33 102.853 53.1472 123 78 123Z" fill="white"/>
<path d="M76.6948 132.999L74.6308 146.255L72.2049 145.88L73.0656 140.352L66.277 139.302L65.4163 144.83L62.9904 144.455L65.0544 131.199L67.4803 131.575L66.5903 137.29L73.3789 138.34L74.2689 132.624L76.6948 132.999Z" fill="#232835"/>
<path d="M53.7436 126.959L47.398 138.779L45.232 137.624L51.5775 125.804L53.7436 126.959Z" fill="#232835"/>
<path d="M42.4429 120.052L32.6504 129.222L28.6298 124.957C27.6203 123.887 27.0961 122.822 27.0571 121.764C27.0095 120.696 27.4394 119.737 28.3469 118.888C28.9488 118.324 29.5889 117.977 30.2672 117.846C30.9368 117.705 31.618 117.771 32.3108 118.044C32.9943 118.325 33.6493 118.798 34.2759 119.462L33.8292 119.515L33.3854 119.045C33.0199 118.657 32.7954 118.215 32.7119 117.72C32.6284 117.225 32.7037 116.685 32.9376 116.101L34.6628 111.801L36.5164 113.767L34.6932 118.185C34.491 118.618 34.4651 119.016 34.6156 119.379C34.7574 119.732 35.0024 120.094 35.3505 120.463L36.7864 121.986L40.759 118.266L42.4429 120.052ZM35.4668 123.222L33.4043 121.034C32.8126 120.406 32.2347 120.053 31.6709 119.972C31.089 119.891 30.5435 120.089 30.0342 120.566C29.5248 121.043 29.2972 121.569 29.3512 122.144C29.3965 122.71 29.7151 123.307 30.3068 123.934L32.3694 126.122L35.4668 123.222Z" fill="#232835"/>
<path d="M28.624 102.39L16.105 107.211L12.8371 98.7843L14.6306 98.0936L17.0454 104.321L20.5081 102.987L18.2515 97.1681L20.0628 96.4706L22.3194 102.29L25.9596 100.888L23.5448 94.6607L25.356 93.9632L28.624 102.39Z" fill="#232835"/>
<path d="M23.0539 70.0961L10.1643 66.3778L10.7641 64.3129L22.7979 62.655L22.6333 63.2214L13.3491 55.4138L13.9436 53.3672L26.8331 57.0855L26.2121 59.2235L16.6501 56.4651L16.8411 55.8072L25.1452 62.8964L24.7365 64.3034L13.9164 65.8758L14.1128 65.1997L23.6749 67.9581L23.0539 70.0961Z" fill="#232835"/>
<path d="M32.3977 46.906L22.0485 38.3702L27.8233 31.4169L29.3059 32.6398L25.0387 37.7779L27.9012 40.1389L31.8889 35.3374L33.3862 36.5724L29.3986 41.3738L32.4079 43.8559L36.6752 38.7178L38.1725 39.9527L32.3977 46.906Z" fill="#232835"/>
<path d="M57.6878 26.9867L56.7797 24.5026L59.2838 23.5935L60.1919 26.0776L57.6878 26.9867Z" fill="#232835"/>
<path d="M82.8234 22.8701L85.7192 9.7712L88.1168 10.2976L86.9092 15.7601L93.6187 17.2332L94.8263 11.7706L97.2239 12.297L94.3281 25.3959L91.9305 24.8695L93.1792 19.2212L86.4696 17.7482L85.2209 23.3965L82.8234 22.8701Z" fill="#232835"/>
<path d="M105.35 30.3349L112.427 18.9383L114.516 20.2268L107.439 31.6233L105.35 30.3349Z" fill="#232835"/>
<path d="M116.194 37.9362L126.543 29.4004L130.287 33.909C131.228 35.0411 131.684 36.1365 131.656 37.1952C131.637 38.2638 131.147 39.1935 130.188 39.9845C129.552 40.5092 128.891 40.8157 128.206 40.904C127.529 41.002 126.853 40.8933 126.179 40.5779C125.515 40.2544 124.891 39.7413 124.307 39.0387L124.756 39.0136L125.17 39.5113C125.51 39.9211 125.706 40.3759 125.759 40.8755C125.811 41.3751 125.702 41.909 125.431 42.4772L123.439 46.6607L121.713 44.5821L123.81 40.287C124.039 39.8679 124.09 39.4724 123.963 39.1006C123.844 38.7386 123.622 38.3624 123.298 37.972L121.96 36.3618L117.762 39.8246L116.194 37.9362ZM123.355 35.2116L125.276 37.5245C125.827 38.1881 126.381 38.5777 126.939 38.6932C127.515 38.8105 128.072 38.6471 128.61 38.2032C129.148 37.7592 129.408 37.2486 129.391 36.6713C129.381 36.1037 129.101 35.4881 128.549 34.8245L126.629 32.5116L123.355 35.2116Z" fill="#232835"/>
<path d="M128.87 56.4309L141.667 52.404L144.397 61.0204L142.564 61.5973L140.546 55.2303L137.007 56.3441L138.892 62.2939L137.041 62.8765L135.156 56.9267L131.435 58.0976L133.452 64.4646L131.601 65.0472L128.87 56.4309Z" fill="#232835"/>
<path d="M132.388 89.0095L145.019 93.5284L144.29 95.5514L132.175 96.4512L132.375 95.8962L141.15 104.27L140.427 106.275L127.796 101.756L128.551 99.6614L137.921 103.014L137.689 103.658L129.847 96.063L130.343 94.6845L141.242 93.794L141.004 94.4564L131.633 91.1041L132.388 89.0095Z" fill="#232835"/>
<path d="M121.599 111.566L131.392 120.735L125.191 127.312L123.788 125.998L128.37 121.139L125.661 118.602L121.38 123.144L119.963 121.817L124.245 117.276L121.397 114.61L116.815 119.469L115.398 118.143L121.599 111.566Z" fill="#232835"/>
<path d="M95.1049 129.863L95.8547 132.399L93.2985 133.15L92.5488 130.613L95.1049 129.863Z" fill="#232835"/>
</svg>
