<svg width="30" height="30" viewBox="0 0 30 30" fill="none" xmlns="http://www.w3.org/2000/svg">
<path d="M25.3705 1.30373C21.2279 -3.55213 7.81909 5.85543 7.89875 17.9679C7.89885 18.0917 7.85833 18.212 7.78342 18.3104C7.70851 18.4089 7.60334 18.48 7.48408 18.5129C7.36482 18.5458 7.23806 18.5387 7.12326 18.4926C7.00846 18.4464 6.91198 18.3639 6.84864 18.2576C5.46653 15.2599 5.28639 11.8463 6.34531 8.7197C6.39567 8.60136 6.40084 8.46864 6.35984 8.34673C6.31884 8.22483 6.23452 8.12221 6.12287 8.05835C6.01123 7.99449 5.88003 7.97383 5.75416 8.00029C5.6283 8.02675 5.51652 8.09848 5.44004 8.20189C3.22416 10.5944 1.99526 13.7365 2.00001 16.9975C2.00001 25.5215 9.06836 30.1311 14.9997 29.9972C33.2934 29.5807 29.064 5.63454 25.3705 1.30373Z" fill="#80B341"/>
</svg>
