<svg width="191" height="191" viewBox="0 0 191 191" fill="none" xmlns="http://www.w3.org/2000/svg">
<g opacity="0.2">
<mask id="path-1-inside-1_410_451" fill="white">
<path d="M191 95.5C191 115.668 184.615 135.318 172.761 151.633C160.907 167.949 144.192 180.094 125.011 186.326C105.831 192.558 85.1694 192.558 65.9889 186.326C46.8083 180.094 30.0931 167.949 18.2389 151.633C6.38464 135.318 -1.76311e-06 115.668 0 95.5C1.76311e-06 75.3324 6.38465 55.6824 18.2389 39.3665C30.0931 23.0506 46.8083 10.9062 65.9889 4.6741C85.1694 -1.55804 105.831 -1.55803 125.011 4.67411L113.207 41.0045C101.698 37.2652 89.3017 37.2652 77.7933 41.0045C66.285 44.7437 56.2559 52.0303 49.1433 61.8199C42.0308 71.6095 38.2 83.3994 38.2 95.5C38.2 107.601 42.0308 119.391 49.1433 129.18C56.2559 138.97 66.285 146.256 77.7933 149.996C89.3017 153.735 101.698 153.735 113.207 149.996C124.715 146.256 134.744 138.97 141.857 129.18C148.969 119.391 152.8 107.601 152.8 95.5H191Z"/>
</mask>
<path d="M191 95.5C191 115.668 184.615 135.318 172.761 151.633C160.907 167.949 144.192 180.094 125.011 186.326C105.831 192.558 85.1694 192.558 65.9889 186.326C46.8083 180.094 30.0931 167.949 18.2389 151.633C6.38464 135.318 -1.76311e-06 115.668 0 95.5C1.76311e-06 75.3324 6.38465 55.6824 18.2389 39.3665C30.0931 23.0506 46.8083 10.9062 65.9889 4.6741C85.1694 -1.55804 105.831 -1.55803 125.011 4.67411L113.207 41.0045C101.698 37.2652 89.3017 37.2652 77.7933 41.0045C66.285 44.7437 56.2559 52.0303 49.1433 61.8199C42.0308 71.6095 38.2 83.3994 38.2 95.5C38.2 107.601 42.0308 119.391 49.1433 129.18C56.2559 138.97 66.285 146.256 77.7933 149.996C89.3017 153.735 101.698 153.735 113.207 149.996C124.715 146.256 134.744 138.97 141.857 129.18C148.969 119.391 152.8 107.601 152.8 95.5H191Z" stroke="white" stroke-width="4" mask="url(#path-1-inside-1_410_451)"/>
</g>
</svg>
