<svg width="40" height="40" viewBox="0 0 40 40" fill="none" xmlns="http://www.w3.org/2000/svg">
<g clip-path="url(#clip0_410_423)">
<path d="M26.8333 5.00008C26.6099 6.09996 26.6099 7.23354 26.8333 8.33341H7.51833L20.1017 19.4367L28.5167 11.9034C29.2267 12.7817 30.1133 13.5134 31.1217 14.0451L20.12 23.8967L6.66666 12.0267V31.6667H33.3333V14.8334C34.4332 15.0569 35.5668 15.0569 36.6667 14.8334V33.3334C36.6667 33.7754 36.4911 34.1994 36.1785 34.5119C35.8659 34.8245 35.442 35.0001 35 35.0001H4.99999C4.55797 35.0001 4.13404 34.8245 3.82148 34.5119C3.50892 34.1994 3.33333 33.7754 3.33333 33.3334V6.66675C3.33333 6.22472 3.50892 5.8008 3.82148 5.48824C4.13404 5.17568 4.55797 5.00008 4.99999 5.00008H26.8333ZM35 11.6667C34.3434 11.6667 33.6932 11.5374 33.0866 11.2861C32.48 11.0349 31.9288 10.6666 31.4645 10.2023C31.0002 9.73799 30.6319 9.18679 30.3806 8.58016C30.1293 7.97354 30 7.32336 30 6.66675C30 6.01014 30.1293 5.35996 30.3806 4.75333C30.6319 4.1467 31.0002 3.59551 31.4645 3.13121C31.9288 2.66692 32.48 2.29862 33.0866 2.04735C33.6932 1.79608 34.3434 1.66675 35 1.66675C36.3261 1.66675 37.5979 2.19353 38.5355 3.13121C39.4732 4.0689 40 5.34067 40 6.66675C40 7.99283 39.4732 9.2646 38.5355 10.2023C37.5979 11.14 36.3261 11.6667 35 11.6667Z" fill="#232835"/>
</g>
<defs>
<clipPath id="clip0_410_423">
<rect width="40" height="40" fill="white"/>
</clipPath>
</defs>
</svg>
