<svg width="40" height="40" viewBox="0 0 40 40" fill="none" xmlns="http://www.w3.org/2000/svg">
<g clip-path="url(#clip0_410_416)">
<path d="M15.61 17.8033C17.1739 20.5508 19.4492 22.8261 22.1967 24.39L23.67 22.3267C23.9069 21.9949 24.2572 21.7615 24.6547 21.6706C25.0521 21.5796 25.4691 21.6376 25.8267 21.8333C28.1839 23.1215 30.787 23.8963 33.465 24.1067C33.883 24.1398 34.2731 24.3292 34.5576 24.6372C34.8421 24.9452 35.0001 25.3491 35 25.7683V33.205C35.0001 33.6177 34.8471 34.0157 34.5706 34.322C34.2941 34.6284 33.9138 34.8212 33.5033 34.8633C32.62 34.955 31.73 35 30.8333 35C16.5667 35 5 23.4333 5 9.16667C5 8.27 5.045 7.38 5.13667 6.49667C5.17876 6.08616 5.37164 5.70587 5.67798 5.42939C5.98433 5.15291 6.38234 4.99991 6.795 5H14.2317C14.6509 4.99995 15.0548 5.15792 15.3628 5.44242C15.6708 5.72692 15.8602 6.11704 15.8933 6.535C16.1037 9.21299 16.8785 11.8161 18.1667 14.1733C18.3624 14.5309 18.4204 14.9479 18.3294 15.3453C18.2385 15.7427 18.0051 16.0931 17.6733 16.33L15.61 17.8033ZM11.4067 16.7083L14.5733 14.4467C13.6746 12.5068 13.0589 10.4481 12.745 8.33333H8.35C8.34 8.61 8.335 8.88833 8.335 9.16667C8.33333 21.5933 18.4067 31.6667 30.8333 31.6667C31.1117 31.6667 31.39 31.6617 31.6667 31.65V27.255C29.5519 26.9411 27.4932 26.3254 25.5533 25.4267L23.2917 28.5933C22.3811 28.2395 21.4967 27.8218 20.645 27.3433L20.5483 27.2883C17.2793 25.4279 14.5721 22.7207 12.7117 19.4517L12.6567 19.355C12.1782 18.5033 11.7605 17.6189 11.4067 16.7083Z" fill="#232835"/>
</g>
<defs>
<clipPath id="clip0_410_416">
<rect width="40" height="40" fill="white"/>
</clipPath>
</defs>
</svg>
