<svg width="40" height="40" viewBox="0 0 40 40" fill="none" xmlns="http://www.w3.org/2000/svg">
<g clip-path="url(#clip0_410_139)">
<path d="M21.6667 30V33.3333H28.3333V36.6667H11.6667V33.3333H18.3333V30H4.98665C4.7678 29.9987 4.55135 29.9542 4.34972 29.8691C4.14808 29.784 3.96523 29.6599 3.81164 29.504C3.65805 29.3481 3.53673 29.1634 3.45465 28.9605C3.37257 28.7576 3.33134 28.5405 3.33332 28.3217V6.67833C3.33332 5.75167 4.09165 5 4.98665 5H35.0133C35.9267 5 36.6667 5.74833 36.6667 6.67833V28.3217C36.6667 29.2483 35.9083 30 35.0133 30H21.6667Z" fill="#232835"/>
</g>
<defs>
<clipPath id="clip0_410_139">
<rect width="40" height="40" fill="white"/>
</clipPath>
</defs>
</svg>
