<svg width="198" height="50" viewBox="0 0 198 50" fill="none" xmlns="http://www.w3.org/2000/svg">
<path d="M22.7206 9.77942V3.52942H3.01471V46.4706H22.7206V40.2206C18.6838 40.2206 14.8124 38.6169 11.958 35.7625C9.10359 32.9081 7.5 29.0368 7.5 25C7.5 20.9633 9.10359 17.0918 11.958 14.2374C14.8124 11.383 18.6838 9.77942 22.7206 9.77942Z" fill="#CCCCCC"/>
<path d="M22.7206 9.77942V40.2206C26.7573 40.2206 30.6288 38.6169 33.4832 35.7625C36.3376 32.9081 37.9412 29.0368 37.9412 25C37.9412 20.9633 36.3376 17.0918 33.4832 14.2374C30.6288 11.383 26.7573 9.77942 22.7206 9.77942Z" fill="#CCCCCC"/>
<path d="M49 13.6029H53.4118V34.8529H49V13.6029Z" fill="#CCCCCC"/>
<path d="M55.8823 27.5736C55.8823 26.0447 56.3363 24.5503 57.1866 23.2797C58.0369 22.0092 59.2453 21.0196 60.6587 20.4365C62.072 19.8536 63.6266 19.7033 65.1254 20.0047C66.6243 20.3062 67.9998 21.0459 69.0778 22.13C70.1557 23.2143 70.8876 24.594 71.1806 26.0946C71.4734 27.5952 71.3143 29.1489 70.7231 30.5589C70.1319 31.9687 69.1356 33.1715 67.8601 34.0145C66.5847 34.8575 65.0876 35.3028 63.5588 35.2942C62.5448 35.3021 61.5394 35.1075 60.6016 34.7217C59.6638 34.3359 58.8123 33.7668 58.0973 33.0478C57.3823 32.3287 56.8182 31.474 56.4378 30.534C56.0575 29.594 55.8687 28.5875 55.8823 27.5736ZM66.9412 27.5736C66.9238 26.9145 66.7125 26.275 66.3337 25.7355C65.9548 25.1958 65.4254 24.7797 64.8113 24.5395C64.1973 24.2992 63.5262 24.2452 62.8818 24.3845C62.2372 24.5236 61.6481 24.8496 61.1879 25.322C60.7278 25.7942 60.4171 26.3915 60.2947 27.0395C60.1723 27.6874 60.2437 28.357 60.4998 28.9645C60.756 29.572 61.1856 30.0906 61.735 30.4552C62.2843 30.8199 62.9288 31.0145 63.5882 31.0148C64.0372 31.0236 64.4831 30.9396 64.8981 30.7681C65.3131 30.5968 65.6882 30.3417 66.0001 30.0187C66.3121 29.6958 66.554 29.3118 66.7109 28.8912C66.8678 28.4705 66.9362 28.022 66.9118 27.5736H66.9412Z" fill="#CCCCCC"/>
<path d="M88.6912 20.2942V34.1324C88.6912 39.0147 84.8676 41.0883 81 41.0883C79.6357 41.2002 78.2673 40.9292 77.049 40.3056C75.8304 39.6821 74.8101 38.7308 74.1029 37.5589L77.8235 35.4118C78.125 36.0197 78.6046 36.5212 79.1984 36.8496C79.7922 37.178 80.4719 37.3177 81.1471 37.25C81.5772 37.303 82.0137 37.2603 82.4253 37.125C82.837 36.9896 83.2137 36.765 83.5284 36.4671C83.8432 36.1692 84.0882 35.8055 84.246 35.4018C84.4038 34.9983 84.4704 34.5647 84.4412 34.1324V32.7942C83.9278 33.4167 83.2763 33.9108 82.5387 34.2375C81.8009 34.5643 80.9972 34.7146 80.1912 34.6765C78.241 34.6765 76.3709 33.9018 74.9919 32.5228C73.6129 31.144 72.8382 29.2737 72.8382 27.3236C72.8382 25.3734 73.6129 23.5033 74.9919 22.1243C76.3709 20.7453 78.241 19.9706 80.1912 19.9706C80.9972 19.9325 81.8009 20.0828 82.5387 20.4096C83.2763 20.7364 83.9278 21.2305 84.4412 21.853V20.3824L88.6912 20.2942ZM84.4412 27.2795C84.4704 26.5759 84.2887 25.8796 83.9191 25.2802C83.5495 24.6808 83.0093 24.2056 82.3673 23.9158C81.7256 23.6259 81.0119 23.5347 80.3178 23.6539C79.6238 23.773 78.9812 24.097 78.4728 24.5842C77.9644 25.0714 77.6134 25.6996 77.4648 26.388C77.3163 27.0764 77.3771 27.7933 77.6393 28.4468C77.9016 29.1003 78.3534 29.6605 78.9365 30.0552C79.5197 30.4499 80.2076 30.6612 80.9118 30.6618C81.3713 30.6949 81.8326 30.6312 82.2659 30.475C82.6993 30.3187 83.0951 30.0733 83.4276 29.7545C83.7603 29.4358 84.0223 29.0508 84.1969 28.6245C84.3715 28.1981 84.4547 27.7399 84.4412 27.2795Z" fill="#CCCCCC"/>
<path d="M91.1765 27.5735C91.1765 26.0459 91.6297 24.5526 92.4787 23.2826C93.3277 22.0126 94.5343 21.0231 95.9459 20.4393C97.3575 19.8553 98.9106 19.7032 100.409 20.0023C101.907 20.3015 103.282 21.0382 104.362 22.1194C105.441 23.2007 106.175 24.5778 106.471 26.0763C106.767 27.575 106.612 29.1278 106.026 30.5382C105.439 31.9488 104.447 33.1535 103.176 34.0001C101.904 34.8468 100.41 35.2971 98.8824 35.2941C97.8665 35.304 96.8587 35.1109 95.9184 34.7262C94.9781 34.3415 94.124 33.7729 93.4063 33.0538C92.6885 32.3347 92.1216 31.4795 91.7387 30.5385C91.3559 29.5975 91.1647 28.5894 91.1765 27.5735ZM102.235 27.5735C102.218 26.9138 102.006 26.2738 101.627 25.7338C101.247 25.194 100.717 24.7779 100.102 24.5381C99.4872 24.2982 98.8153 24.2451 98.1704 24.3856C97.5256 24.5259 96.9365 24.8535 96.4769 25.3272C96.0174 25.8009 95.7078 26.3997 95.5872 27.0485C95.4665 27.6973 95.5399 28.3673 95.7982 28.9746C96.0566 29.5819 96.4885 30.0994 97.0399 30.4623C97.591 30.8251 98.2371 31.0173 98.8971 31.0147C99.346 31.0235 99.7919 30.9396 100.207 30.7681C100.622 30.5968 100.997 30.3416 101.309 30.0187C101.621 29.6957 101.863 29.3118 102.02 28.8912C102.177 28.4704 102.245 28.0219 102.221 27.5735H102.235Z" fill="#CCCCCC"/>
<path d="M108.632 16.3971C108.632 15.8794 108.786 15.3732 109.074 14.9428C109.361 14.5123 109.77 14.1768 110.248 13.9787C110.727 13.7806 111.253 13.7287 111.761 13.8297C112.268 13.9307 112.735 14.18 113.101 14.5461C113.467 14.9122 113.716 15.3787 113.817 15.8863C113.918 16.3941 113.866 16.9205 113.668 17.3988C113.47 17.8771 113.135 18.2859 112.704 18.5735C112.274 18.8612 111.768 19.0147 111.25 19.0147C110.558 19.0071 109.897 18.7288 109.408 18.2396C108.918 17.7503 108.64 17.089 108.632 16.3971ZM109.059 20.2941H113.471V34.853H109.059V20.2941Z" fill="#CCCCCC"/>
<path d="M132.353 27.5735C132.402 28.5418 132.26 29.5103 131.934 30.4232C131.607 31.3362 131.104 32.1756 130.452 32.8931C129.8 33.6107 129.012 34.1922 128.135 34.6043C127.257 35.0163 126.307 35.2507 125.338 35.2941C124.516 35.3488 123.693 35.2172 122.929 34.9091C122.165 34.6009 121.48 34.1243 120.926 33.5147V40.7059H116.515V20.2941H120.926V21.6618C121.481 21.054 122.166 20.5796 122.93 20.274C123.694 19.9682 124.517 19.8394 125.338 19.8971C126.303 19.9405 127.25 20.1735 128.124 20.5828C128.999 20.9921 129.784 21.5697 130.435 22.2825C131.087 22.9953 131.591 23.8294 131.92 24.7374C132.249 25.6452 132.396 26.6088 132.353 27.5735ZM127.941 27.5735C127.924 26.8905 127.705 26.2278 127.313 25.6685C126.92 25.1093 126.372 24.6781 125.735 24.4294C125.099 24.1806 124.403 24.1253 123.736 24.2702C123.068 24.415 122.458 24.7538 121.982 25.244C121.506 25.7341 121.185 26.3538 121.06 27.0256C120.935 27.6972 121.01 28.3909 121.278 29.0197C121.545 29.6484 121.992 30.1843 122.563 30.5602C123.133 30.936 123.802 31.135 124.485 31.1324C124.953 31.1522 125.42 31.073 125.855 30.8997C126.291 30.7265 126.684 30.4632 127.011 30.1272C127.337 29.7912 127.588 29.3899 127.749 28.9499C127.909 28.5097 127.975 28.0407 127.941 27.5735Z" fill="#CCCCCC"/>
<path d="M145.779 30.4853C145.779 33.8382 142.838 35.2647 139.721 35.2647C138.449 35.3791 137.172 35.1095 136.056 34.4908C134.939 33.8722 134.033 32.9328 133.456 31.7941L137.25 29.647C137.4 30.1717 137.726 30.6289 138.173 30.9422C138.62 31.2554 139.161 31.4056 139.706 31.3676C140.75 31.3676 141.279 31.0441 141.279 30.4558C141.279 28.8529 134.118 29.7059 134.118 24.6617C134.118 21.4853 136.794 19.897 139.824 19.897C140.975 19.8454 142.119 20.1067 143.134 20.6531C144.149 21.1994 144.997 22.0104 145.588 23L141.794 25C141.626 24.6206 141.353 24.2979 141.006 24.0709C140.658 23.8438 140.253 23.7222 139.838 23.7206C139.074 23.7206 138.618 24.0147 138.618 24.5294C138.618 26.2059 145.779 25.1029 145.779 30.4853Z" fill="#CCCCCC"/>
<path d="M161.765 20.2941V34.8529H157.353V33.4852C156.851 34.0907 156.215 34.5697 155.496 34.8839C154.775 35.1982 153.991 35.3386 153.206 35.2941C150.265 35.2941 147.75 33.1911 147.75 29.2647V20.2941H152.162V28.6029C152.126 28.9502 152.168 29.301 152.282 29.631C152.397 29.9608 152.581 30.262 152.822 30.5138C153.065 30.7654 153.359 30.9616 153.684 31.0888C154.009 31.2158 154.357 31.2708 154.706 31.2499C156.294 31.2499 157.412 30.3088 157.412 28.3088V20.2941H161.765Z" fill="#CCCCCC"/>
<path d="M186.765 25.9118V34.8529H182.353V26.2941C182.353 24.8235 181.662 23.9118 180.265 23.9118C178.868 23.9118 177.985 24.9265 177.985 26.647V34.8529H173.574V26.2941C173.574 24.8235 172.882 23.9118 171.485 23.9118C170.088 23.9118 169.206 24.9265 169.206 26.647V34.8529H164.794V20.2941H169.206V21.6323C169.663 21.0412 170.259 20.5729 170.943 20.27C171.625 19.967 172.374 19.8388 173.118 19.897C173.863 19.8581 174.607 20.014 175.275 20.3491C175.943 20.6843 176.512 21.1873 176.926 21.8088C177.412 21.1594 178.053 20.6435 178.791 20.3093C179.528 19.9748 180.34 19.8331 181.147 19.897C184.588 19.897 186.765 22.2794 186.765 25.9118Z" fill="#CCCCCC"/>
<path d="M190.471 20.2059C192.257 20.2059 193.706 18.7574 193.706 16.9706C193.706 15.1839 192.257 13.7354 190.471 13.7354C188.684 13.7354 187.235 15.1839 187.235 16.9706C187.235 18.7574 188.684 20.2059 190.471 20.2059Z" fill="#CCCCCC"/>
</svg>
