<svg width="40" height="40" viewBox="0 0 40 40" fill="none" xmlns="http://www.w3.org/2000/svg">
<g clip-path="url(#clip0_410_150)">
<path d="M10 3.33337H30C30.442 3.33337 30.866 3.50897 31.1785 3.82153C31.4911 4.13409 31.6667 4.55801 31.6667 5.00004V35C31.6667 35.4421 31.4911 35.866 31.1785 36.1786C30.866 36.4911 30.442 36.6667 30 36.6667H10C9.55798 36.6667 9.13406 36.4911 8.8215 36.1786C8.50894 35.866 8.33334 35.4421 8.33334 35V5.00004C8.33334 4.55801 8.50894 4.13409 8.8215 3.82153C9.13406 3.50897 9.55798 3.33337 10 3.33337ZM20 28.3334C19.558 28.3334 19.1341 28.509 18.8215 28.8215C18.5089 29.1341 18.3333 29.558 18.3333 30C18.3333 30.4421 18.5089 30.866 18.8215 31.1786C19.1341 31.4911 19.558 31.6667 20 31.6667C20.442 31.6667 20.866 31.4911 21.1785 31.1786C21.4911 30.866 21.6667 30.4421 21.6667 30C21.6667 29.558 21.4911 29.1341 21.1785 28.8215C20.866 28.509 20.442 28.3334 20 28.3334Z" fill="#232835"/>
</g>
<defs>
<clipPath id="clip0_410_150">
<rect width="40" height="40" fill="white"/>
</clipPath>
</defs>
</svg>
