<svg width="40" height="40" viewBox="0 0 40 40" fill="none" xmlns="http://www.w3.org/2000/svg">
<g clip-path="url(#clip0_410_161)">
<path d="M5 5H35C35.442 5 35.866 5.17559 36.1785 5.48816C36.4911 5.80072 36.6667 6.22464 36.6667 6.66667V33.3333C36.6667 33.7754 36.4911 34.1993 36.1785 34.5118C35.866 34.8244 35.442 35 35 35H5C4.55797 35 4.13405 34.8244 3.82149 34.5118C3.50893 34.1993 3.33333 33.7754 3.33333 33.3333V6.66667C3.33333 6.22464 3.50893 5.80072 3.82149 5.48816C4.13405 5.17559 4.55797 5 5 5ZM33.3333 16.6667H6.66667V31.6667H33.3333V16.6667ZM8.33333 10V13.3333H11.6667V10H8.33333ZM15 10V13.3333H18.3333V10H15Z" fill="#232835"/>
</g>
<defs>
<clipPath id="clip0_410_161">
<rect width="40" height="40" fill="white"/>
</clipPath>
</defs>
</svg>
