<svg width="189" height="50" viewBox="0 0 189 50" fill="none" xmlns="http://www.w3.org/2000/svg">
<path d="M64.0428 36.0067C63.1931 36.0529 62.3527 35.8113 61.6571 35.321C61.3665 35.1056 61.1327 34.8226 60.9758 34.4966C60.819 34.1705 60.744 33.8112 60.7571 33.4496V20.2067C60.7503 20.1507 60.7561 20.0937 60.7745 20.0403C60.7928 19.9869 60.8231 19.9384 60.8631 19.8984C60.9031 19.8584 60.9515 19.8282 61.005 19.8099C61.0584 19.7914 61.1154 19.7856 61.1714 19.7924H63.5714C63.8428 19.7924 63.9714 19.9353 63.9714 20.2067V32.421C63.9714 32.9639 64.2143 33.2353 64.7143 33.2353C64.9263 33.244 65.1383 33.22 65.3428 33.1639C65.6285 33.1639 65.7857 33.2496 65.8 33.5067L66.0143 35.2924C66.0245 35.3446 66.0235 35.3982 66.0114 35.4499C65.9993 35.5014 65.9761 35.55 65.9435 35.5919C65.9111 35.6339 65.87 35.6685 65.8231 35.6932C65.7761 35.7179 65.7244 35.7323 65.6714 35.7353C65.1457 35.909 64.5964 36.0006 64.0428 36.0067Z" fill="#CCCCCC"/>
<path d="M77.5428 34.4782C76.337 35.4746 74.8214 36.0196 73.2571 36.0196C71.6928 36.0196 70.1774 35.4746 68.9714 34.4782C67.9115 33.4082 67.3168 31.9629 67.3168 30.4568C67.3168 28.9506 67.9115 27.5053 68.9714 26.4353C70.1797 25.4441 71.6943 24.9023 73.2571 24.9023C74.82 24.9023 76.3345 25.4441 77.5428 26.4353C78.5784 27.5152 79.1565 28.9535 79.1565 30.4496C79.1565 31.9458 78.5784 33.3841 77.5428 34.4639V34.4782ZM71.2285 32.5925C71.7883 33.0995 72.5163 33.3802 73.2714 33.3802C74.0265 33.3802 74.7547 33.0995 75.3143 32.5925C75.8208 32.0102 76.0997 31.2643 76.0997 30.4925C76.0997 29.7208 75.8208 28.9749 75.3143 28.3925C74.7547 27.8856 74.0265 27.6048 73.2714 27.6048C72.5163 27.6048 71.7883 27.8856 71.2285 28.3925C70.7221 28.9749 70.4431 29.7208 70.4431 30.4925C70.4431 31.2643 70.7221 32.0102 71.2285 32.5925Z" fill="#CCCCCC"/>
<path d="M92.3714 25.2639C92.6428 25.2639 92.7714 25.4067 92.7714 25.6782V35.921C92.7964 36.6125 92.667 37.3006 92.3927 37.9356C92.1184 38.5707 91.7061 39.1367 91.1857 39.5925C90.0306 40.5775 88.5451 41.0879 87.0286 41.021C85.6588 41.0692 84.3073 40.6952 83.1571 39.9496C82.666 39.6272 82.2464 39.207 81.9246 38.7156C81.6026 38.224 81.3851 37.6716 81.2857 37.0925C81.2857 36.8067 81.2857 36.6782 81.6714 36.6782H84.0714C84.1733 36.6816 84.2721 36.7146 84.3557 36.7729C84.4394 36.8312 84.5044 36.9123 84.5428 37.0067C84.6986 37.4406 85.0088 37.8019 85.4143 38.021C85.9084 38.276 86.4584 38.4037 87.0143 38.3925C87.3497 38.4109 87.6854 38.3622 88.0018 38.2493C88.3183 38.1366 88.609 37.9617 88.8571 37.7353C89.0838 37.4985 89.2601 37.218 89.3756 36.9112C89.491 36.6043 89.543 36.2772 89.5286 35.9496V35.0496C88.6693 35.6816 87.6234 36.0085 86.5571 35.9782C85.8108 36.0053 85.0668 35.8815 84.3696 35.6139C83.6724 35.3462 83.0366 34.9406 82.5 34.421C81.4701 33.3556 80.8944 31.9316 80.8944 30.4496C80.8944 28.9677 81.4701 27.5437 82.5 26.4782C83.0391 25.9633 83.6758 25.5616 84.3726 25.2966C85.0694 25.0316 85.8121 24.9087 86.5571 24.9353C87.6543 24.9063 88.7283 25.2543 89.6 25.921V25.6925C89.5934 25.6377 89.5991 25.5822 89.6167 25.5299C89.6343 25.4777 89.6633 25.43 89.7016 25.3903C89.7398 25.3506 89.7866 25.32 89.8381 25.3006C89.8898 25.2812 89.9451 25.2736 90 25.2782L92.3714 25.2639ZM86.8286 33.4353C87.1966 33.4467 87.5627 33.3772 87.9008 33.2315C88.239 33.0859 88.5411 32.8677 88.7857 32.5925C89.2607 31.9792 89.5184 31.2253 89.5184 30.4496C89.5184 29.6739 89.2607 28.9202 88.7857 28.3067C88.542 28.0353 88.2417 27.8203 87.9061 27.6772C87.5704 27.534 87.2076 27.4662 86.8428 27.4782C86.4706 27.4665 86.1003 27.5357 85.7574 27.6813C85.4146 27.8269 85.1074 28.0452 84.8571 28.321C84.331 28.9077 84.0543 29.6765 84.0857 30.4639C84.06 31.2436 84.3306 32.0042 84.8428 32.5925C85.0937 32.8676 85.401 33.0855 85.7437 33.2309C86.0864 33.3763 86.4564 33.446 86.8286 33.4353Z" fill="#CCCCCC"/>
<path d="M105.1 34.4781C103.892 35.4694 102.377 36.0111 100.814 36.0111C99.2514 36.0111 97.7369 35.4694 96.5286 34.4781C95.4921 33.3958 94.9136 31.9552 94.9136 30.4567C94.9136 28.9582 95.4921 27.5175 96.5286 26.4352C97.738 25.4465 99.2521 24.9064 100.814 24.9064C102.376 24.9064 103.891 25.4465 105.1 26.4352C106.136 27.5151 106.714 28.9534 106.714 30.4495C106.714 31.9457 106.136 33.3839 105.1 34.4638V34.4781ZM98.7714 32.5924C99.0453 32.8529 99.3681 33.0565 99.7213 33.1914C100.074 33.3262 100.451 33.3898 100.829 33.3781C101.204 33.3878 101.578 33.3235 101.928 33.1887C102.279 33.0538 102.599 32.8512 102.871 32.5924C103.37 32.0061 103.643 31.2618 103.643 30.4924C103.643 29.7229 103.37 28.9787 102.871 28.3924C102.599 28.1337 102.279 27.9309 101.928 27.7962C101.578 27.6614 101.204 27.5969 100.829 27.6067C100.451 27.5951 100.074 27.6585 99.7213 27.7934C99.3681 27.9282 99.0453 28.1319 98.7714 28.3924C98.2733 28.9787 97.9997 29.7229 97.9997 30.4924C97.9997 31.2618 98.2733 32.0061 98.7714 32.5924Z" fill="#CCCCCC"/>
<path d="M111.871 22.8353C111.494 23.1659 111.009 23.348 110.507 23.348C110.005 23.348 109.521 23.1659 109.143 22.8353C108.972 22.6737 108.835 22.4789 108.742 22.2627C108.649 22.0466 108.601 21.8136 108.601 21.5782C108.601 21.3427 108.649 21.1099 108.742 20.8936C108.835 20.6775 108.972 20.4826 109.143 20.321C109.524 19.9987 110.008 19.822 110.507 19.822C111.007 19.822 111.49 19.9987 111.871 20.321C112.043 20.4826 112.179 20.6775 112.272 20.8936C112.366 21.1099 112.414 21.3427 112.414 21.5782C112.414 21.8136 112.366 22.0466 112.272 22.2627C112.179 22.4789 112.043 22.6737 111.871 22.8353ZM112.171 36.0067C111.322 36.0485 110.483 35.8073 109.786 35.321C109.5 35.1025 109.27 34.8184 109.116 34.4929C108.962 34.1673 108.888 33.8096 108.9 33.4496V25.6782C108.893 25.6222 108.899 25.5652 108.917 25.5117C108.936 25.4583 108.966 25.4099 109.006 25.3699C109.046 25.3299 109.094 25.2996 109.148 25.2813C109.201 25.2629 109.258 25.257 109.314 25.2639H111.714C111.986 25.2639 112.114 25.4067 112.114 25.6782V32.421C112.114 32.9639 112.357 33.2353 112.843 33.2353C113.06 33.2432 113.276 33.219 113.486 33.1639C113.771 33.1639 113.929 33.2496 113.943 33.5067L114.157 35.2924C114.167 35.3446 114.166 35.3982 114.154 35.4499C114.142 35.5014 114.119 35.55 114.086 35.5919C114.054 35.6339 114.013 35.6685 113.966 35.6932C113.919 35.7179 113.867 35.7323 113.814 35.7353C113.284 35.91 112.73 36.0016 112.171 36.0067Z" fill="#CCCCCC"/>
<path d="M122.986 24.9209C123.735 24.8914 124.483 25.0127 125.185 25.2777C125.887 25.5428 126.529 25.9461 127.071 26.4638C128.082 27.5481 128.643 28.9748 128.643 30.4567C128.643 31.9385 128.082 33.3654 127.071 34.4495C126.531 34.9719 125.89 35.3792 125.188 35.6468C124.486 35.9145 123.737 36.0369 122.986 36.0067C121.916 36.0305 120.868 35.7045 120 35.0781V40.2352C120 40.5067 119.857 40.6352 119.586 40.6352H117.186C117.131 40.6455 117.075 40.6422 117.021 40.6258C116.968 40.6092 116.92 40.5801 116.88 40.5407C116.841 40.5012 116.812 40.4529 116.795 40.3997C116.779 40.3465 116.776 40.2901 116.786 40.2352V28.5209C116.803 28.4064 116.792 28.2895 116.756 28.1795C116.72 28.0697 116.658 27.9697 116.576 27.8878C116.494 27.8059 116.394 27.7444 116.284 27.7079C116.174 27.6715 116.057 27.6614 115.943 27.6781H115.471C115.157 27.6781 115 27.5638 115 27.3352V25.6495C114.993 25.5452 115.021 25.4415 115.081 25.3558C115.141 25.2699 115.228 25.2072 115.329 25.1781C115.823 24.9985 116.346 24.9114 116.871 24.9209C117.396 24.8745 117.922 24.9858 118.383 25.2402C118.843 25.4948 119.217 25.8811 119.457 26.3495C119.917 25.8841 120.468 25.5174 121.074 25.2717C121.681 25.0261 122.331 24.9067 122.986 24.9209ZM120.757 32.5924C121.012 32.8587 121.318 33.0705 121.657 33.2152C121.996 33.3599 122.36 33.4345 122.729 33.4345C123.097 33.4345 123.462 33.3599 123.8 33.2152C124.139 33.0705 124.445 32.8587 124.7 32.5924C125.237 31.9939 125.518 31.2098 125.486 30.4067C125.523 29.6029 125.241 28.8169 124.7 28.2209C124.445 27.9548 124.139 27.7429 123.8 27.5982C123.462 27.4534 123.097 27.3788 122.729 27.3788C122.36 27.3788 121.996 27.4534 121.657 27.5982C121.318 27.7429 121.012 27.9548 120.757 28.2209C120.237 28.8275 119.967 29.6085 120 30.4067C119.971 31.2042 120.241 31.9838 120.757 32.5924Z" fill="#CCCCCC"/>
<path d="M135.386 36.0067C134.103 36.0594 132.832 35.7527 131.714 35.121C131.266 34.851 130.884 34.4834 130.597 34.0457C130.31 33.608 130.126 33.1113 130.057 32.5924C130.057 32.3067 130.157 32.1638 130.471 32.1638H132.571C132.671 32.1678 132.768 32.1991 132.851 32.2547C132.935 32.3101 133.001 32.3874 133.043 32.4781C133.343 33.2495 134.129 33.6353 135.386 33.6353C135.824 33.6554 136.261 33.567 136.657 33.3781C136.794 33.3164 136.911 33.2187 136.997 33.0954C137.082 32.9721 137.133 32.8278 137.143 32.6781C137.143 32.3067 136.914 32.0495 136.457 31.8781C135.915 31.6977 135.354 31.5778 134.786 31.521C134.112 31.4447 133.444 31.3254 132.786 31.1638C132.145 31.019 131.563 30.6855 131.114 30.2067C130.85 29.8813 130.655 29.5048 130.542 29.101C130.43 28.6971 130.401 28.2743 130.459 27.859C130.517 27.4435 130.659 27.0444 130.877 26.6865C131.096 26.3285 131.386 26.0194 131.729 25.7781C132.758 25.1223 133.966 24.8027 135.186 24.8638C136.366 24.824 137.534 25.116 138.557 25.7067C138.969 25.9403 139.324 26.2627 139.596 26.6507C139.868 27.0387 140.05 27.4824 140.129 27.9495C140.129 28.2353 140 28.3781 139.743 28.3781H137.629C137.54 28.3834 137.451 28.3617 137.375 28.3158C137.298 28.27 137.237 28.202 137.2 28.121C137.059 27.7827 136.793 27.5115 136.457 27.3638C136.079 27.1658 135.656 27.0674 135.229 27.0781C134.81 27.0554 134.392 27.139 134.014 27.321C133.881 27.3724 133.767 27.4624 133.685 27.5795C133.604 27.6967 133.559 27.8355 133.557 27.9781C133.566 28.1735 133.638 28.3608 133.761 28.5125C133.885 28.6643 134.053 28.7723 134.243 28.821C134.791 29.0278 135.362 29.1715 135.943 29.2495C136.611 29.3375 137.274 29.4615 137.929 29.621C138.569 29.766 139.151 30.0993 139.6 30.5781C139.84 30.842 140.026 31.1507 140.146 31.4867C140.266 31.8225 140.318 32.179 140.3 32.5353C140.312 33.0291 140.196 33.5177 139.964 33.9534C139.731 34.389 139.389 34.7568 138.971 35.021C137.904 35.7063 136.653 36.05 135.386 36.0067Z" fill="#CCCCCC"/>
<path d="M155.4 35.2925C155.409 35.3432 155.406 35.3951 155.394 35.4449C155.381 35.4949 155.36 35.5418 155.329 35.5831C155.299 35.6243 155.26 35.6591 155.216 35.6852C155.171 35.7113 155.123 35.7283 155.071 35.7353C154.55 35.9056 154.006 35.9972 153.457 36.0068C152.914 36.0631 152.366 35.9782 151.866 35.7605C151.364 35.5428 150.929 35.1995 150.6 34.7639C149.591 35.6315 148.286 36.0766 146.957 36.0068C146.34 36.0352 145.724 35.9342 145.149 35.7103C144.573 35.4865 144.05 35.1446 143.614 34.7068C143.181 34.2481 142.846 33.7066 142.627 33.1151C142.409 32.5235 142.312 31.8939 142.343 31.2639V25.6782C142.343 25.4068 142.471 25.2639 142.743 25.2639H145.143C145.414 25.2639 145.543 25.4068 145.543 25.6782V30.8353C145.517 31.4779 145.736 32.1062 146.157 32.5925C146.367 32.8153 146.623 32.9905 146.906 33.1063C147.189 33.2222 147.494 33.2759 147.8 33.2639C148.113 33.2776 148.426 33.2292 148.72 33.1212C149.014 33.0133 149.284 32.8482 149.514 32.6353C149.731 32.4111 149.901 32.1445 150.011 31.8521C150.123 31.5596 150.171 31.2476 150.157 30.9353V25.6782C150.157 25.4068 150.286 25.2639 150.557 25.2639H152.986C153.257 25.2639 153.386 25.4068 153.386 25.6782V32.4068C153.386 32.9639 153.629 33.2353 154.1 33.2353C154.321 33.2439 154.543 33.2199 154.757 33.1639C154.811 33.1488 154.869 33.1461 154.923 33.1561C154.979 33.1659 155.03 33.1882 155.076 33.2212C155.121 33.2542 155.159 33.2971 155.186 33.3465C155.211 33.3959 155.226 33.4508 155.229 33.5068L155.4 35.2925Z" fill="#CCCCCC"/>
<path d="M178.1 35.2924C178.113 35.3436 178.114 35.397 178.104 35.4487C178.093 35.5003 178.071 35.5491 178.04 35.5914C178.009 35.6337 177.969 35.6686 177.921 35.6934C177.876 35.7184 177.824 35.7327 177.771 35.7353C177.24 35.908 176.687 35.9996 176.129 36.0067C175.279 36.0506 174.44 35.8093 173.743 35.321C173.441 35.1119 173.197 34.8317 173.03 34.5053C172.863 34.1789 172.779 33.8161 172.786 33.4496V30.0924C172.816 29.4519 172.601 28.8237 172.186 28.3353C171.986 28.112 171.737 27.936 171.461 27.8199C171.184 27.7039 170.886 27.6506 170.586 27.6639C170.316 27.6537 170.047 27.705 169.799 27.8139C169.551 27.9227 169.333 28.0864 169.157 28.2924C168.78 28.7711 168.587 29.3694 168.614 29.9781V35.2496C168.614 35.521 168.486 35.6639 168.214 35.6639H165.8C165.744 35.6709 165.687 35.6649 165.634 35.6466C165.58 35.6281 165.531 35.5979 165.491 35.5579C165.451 35.518 165.421 35.4694 165.403 35.416C165.384 35.3626 165.379 35.3057 165.386 35.2496V30.0924C165.417 29.4589 165.219 28.8351 164.829 28.3353C164.654 28.1253 164.436 27.9563 164.189 27.8403C163.943 27.7243 163.673 27.664 163.4 27.6639C163.109 27.6521 162.819 27.702 162.547 27.8104C162.276 27.9187 162.031 28.083 161.829 28.2924C161.42 28.7559 161.21 29.3613 161.243 29.9781V35.2496C161.25 35.3057 161.244 35.3626 161.226 35.416C161.207 35.4694 161.177 35.518 161.137 35.5579C161.097 35.5979 161.049 35.6281 160.996 35.6466C160.941 35.6649 160.884 35.6709 160.829 35.6639H158.5C158.229 35.6639 158.1 35.521 158.1 35.2496V28.521C158.117 28.4064 158.107 28.2896 158.07 28.1796C158.034 28.0697 157.973 27.9697 157.89 27.8879C157.809 27.806 157.709 27.7444 157.599 27.708C157.489 27.6716 157.371 27.6614 157.257 27.6781H156.786C156.471 27.6781 156.314 27.5639 156.314 27.3353V25.6496C156.307 25.5453 156.336 25.4416 156.396 25.3559C156.456 25.27 156.543 25.2073 156.643 25.1781C157.137 24.9986 157.66 24.9114 158.186 24.921C158.69 24.878 159.197 24.9786 159.647 25.2111C160.097 25.4437 160.471 25.7987 160.729 26.2353C161.21 25.7786 161.781 25.426 162.406 25.1999C163.03 24.9737 163.694 24.8789 164.357 24.921C165.001 24.8896 165.643 25.0103 166.231 25.2734C166.82 25.5366 167.337 25.9346 167.743 26.4353C168.216 25.9214 168.797 25.5191 169.444 25.2571C170.091 24.9953 170.789 24.8806 171.486 24.921C172.109 24.8919 172.731 24.9923 173.314 25.2161C173.897 25.4399 174.427 25.782 174.871 26.221C175.306 26.6789 175.641 27.2201 175.86 27.812C176.079 28.4037 176.176 29.0339 176.143 29.6639V32.421C176.143 32.9639 176.386 33.2353 176.843 33.2353C177.064 33.2456 177.286 33.2216 177.5 33.1639C177.796 33.1639 177.953 33.2781 177.971 33.5067L178.1 35.2924Z" fill="#CCCCCC"/>
<path d="M10.5857 23.4067C11.6397 19.1706 14.0806 15.4087 17.5199 12.7203C20.9591 10.0319 25.199 8.57141 29.5643 8.57141C33.9296 8.57141 38.1694 10.0319 41.6087 12.7203C45.048 15.4087 47.4889 19.1706 48.5429 23.4067H46.8286C43.9367 23.3641 41.1041 24.2284 38.7286 25.8781C38.5914 25.9774 38.4483 26.0681 38.3 26.1496H38.1C37.9517 26.0681 37.8086 25.9774 37.6714 25.8781C35.2749 24.2666 32.4523 23.4058 29.5643 23.4058C26.6763 23.4058 23.8537 24.2666 21.4571 25.8781C21.32 25.9774 21.1769 26.0681 21.0286 26.1496H20.8286C20.6803 26.0681 20.5371 25.9774 20.4 25.8781C18.0244 24.2284 15.1919 23.3641 12.3 23.4067H10.5857ZM43.7429 32.3638C44.6229 31.6786 45.7136 31.32 46.8286 31.3496H49.1286V26.7638H46.8286C44.8646 26.7401 42.9456 27.3514 41.3571 28.5067C40.4633 29.1657 39.382 29.5213 38.2714 29.5213C37.1609 29.5213 36.0796 29.1657 35.1857 28.5067C33.557 27.373 31.6201 26.7651 29.6357 26.7651C27.6513 26.7651 25.7144 27.373 24.0857 28.5067C23.1919 29.1657 22.1106 29.5213 21 29.5213C19.8894 29.5213 18.8081 29.1657 17.9143 28.5067C16.3063 27.3366 14.3597 26.7246 12.3714 26.7638H10V31.3496H12.3C13.415 31.32 14.5057 31.6786 15.3857 32.3638C17.0114 33.4984 18.9461 34.1067 20.9286 34.1067C22.911 34.1067 24.8457 33.4984 26.4714 32.3638C27.3526 31.6807 28.4424 31.3224 29.5571 31.3496C30.6726 31.3176 31.764 31.6764 32.6429 32.3638C34.2716 33.4977 36.2084 34.1054 38.1929 34.1054C40.1773 34.1054 42.1141 33.4977 43.7429 32.3638ZM43.7429 40.5638C44.6229 39.8786 45.7136 39.52 46.8286 39.5496H49.1286V34.9638H46.8286C44.8646 34.9401 42.9456 35.5514 41.3571 36.7067C40.4633 37.3657 39.382 37.7213 38.2714 37.7213C37.1609 37.7213 36.0796 37.3657 35.1857 36.7067C33.557 35.573 31.6201 34.9653 29.6357 34.9653C27.6513 34.9653 25.7144 35.573 24.0857 36.7067C23.1919 37.3657 22.1106 37.7213 21 37.7213C19.8894 37.7213 18.8081 37.3657 17.9143 36.7067C16.3063 35.5367 14.3597 34.9246 12.3714 34.9638H10V39.5496H12.3C13.415 39.52 14.5057 39.8786 15.3857 40.5638C17.0114 41.6984 18.9461 42.3067 20.9286 42.3067C22.911 42.3067 24.8457 41.6984 26.4714 40.5638C27.3526 39.8807 28.4424 39.5224 29.5571 39.5496C30.6726 39.5176 31.764 39.8764 32.6429 40.5638C34.2716 41.6977 36.2084 42.3054 38.1929 42.3054C40.1773 42.3054 42.1141 41.6977 43.7429 40.5638Z" fill="#CCCCCC"/>
</svg>
