<svg width="234" height="50" viewBox="0 0 234 50" fill="none" xmlns="http://www.w3.org/2000/svg">
<path d="M37.365 22.285C36.7333 22.9205 36.2496 23.6875 35.9483 24.5312C35.647 25.375 35.5355 26.2748 35.6216 27.1667L35.5916 27.1367C35.6803 28.1865 35.5386 29.2428 35.1768 30.2323C34.815 31.2217 34.2416 32.1202 33.4968 32.8652C32.7518 33.61 31.8533 34.1835 30.8638 34.5452C29.8745 34.907 28.818 35.0487 27.7683 34.96L27.7983 34.99C26.5426 34.8732 25.2815 35.1463 24.1866 35.7725C23.092 36.3987 22.217 37.3472 21.6811 38.4888C21.1453 39.6305 20.9745 40.9095 21.1921 42.1518C21.41 43.394 22.0055 44.5388 22.8976 45.4302C23.7898 46.3215 24.9351 46.916 26.1775 47.1325C27.42 47.3492 28.6988 47.1772 29.84 46.6403C30.9811 46.1033 31.9288 45.2277 32.554 44.1323C33.1791 43.037 33.4513 41.7757 33.3333 40.52L33.365 40.55C33.2763 39.5003 33.4178 38.4438 33.7796 37.4543C34.1415 36.465 34.715 35.5665 35.4598 34.8215C36.2048 34.0767 37.1033 33.5032 38.0926 33.1415C39.0821 32.7797 40.1385 32.638 41.1883 32.7267L41.1566 32.6967C42.1823 32.7888 43.2148 32.6207 44.1583 32.2077C45.1016 31.7947 45.9256 31.1502 46.5536 30.334C47.1816 29.5178 47.5936 28.5562 47.751 27.5385C47.9085 26.5207 47.8065 25.4797 47.4545 24.5117C47.1025 23.5438 46.5118 22.6805 45.7373 22.0017C44.9628 21.3228 44.0295 20.8505 43.0238 20.6285C42.0181 20.4065 40.9726 20.4418 39.9843 20.7313C38.996 21.021 38.0968 21.5553 37.37 22.285H37.365Z" fill="#CCCCCC"/>
<path d="M25.07 31.06L25.0383 31.03C25.9305 31.1199 26.8315 31.0104 27.6763 30.7094C28.521 30.4084 29.2883 29.9235 29.9226 29.2897C30.5568 28.6559 31.0425 27.8889 31.344 27.0444C31.6456 26.1999 31.7558 25.299 31.6666 24.4067L31.6983 24.4367C31.6096 23.3869 31.7513 22.3305 32.113 21.341C32.4748 20.3517 33.0483 19.4532 33.7931 18.7082C34.5381 17.9634 35.4366 17.3899 36.426 17.0282C37.4155 16.6663 38.4718 16.5248 39.5216 16.6134L39.49 16.5834C40.7458 16.7014 42.0073 16.429 43.1026 15.8035C44.1981 15.1781 45.0738 14.23 45.6105 13.0885C46.1471 11.9471 46.3186 10.6679 46.1016 9.42537C45.8846 8.18285 45.2896 7.03755 44.3976 6.14565C43.5058 5.25377 42.3605 4.6587 41.118 4.44167C39.8755 4.22462 38.5963 4.39613 37.4548 4.93283C36.3133 5.46952 35.3653 6.34527 34.7398 7.44062C34.1143 8.53595 33.842 9.79757 33.96 11.0534L33.93 11.0217C34.0188 12.0715 33.8775 13.1281 33.5158 14.1176C33.1541 15.1072 32.5806 16.0058 31.8358 16.7509C31.0908 17.4957 30.1921 18.0692 29.2026 18.4309C28.213 18.7925 27.1565 18.9339 26.1066 18.845L26.1366 18.8767C25.2445 18.7869 24.3433 18.8964 23.4986 19.1974C22.654 19.4982 21.8866 19.9832 21.2523 20.617C20.618 21.2509 20.1325 22.0179 19.8308 22.8624C19.5293 23.7069 19.4191 24.6077 19.5083 25.5L19.4783 25.47C19.5666 26.5197 19.4248 27.576 19.063 28.5654C18.701 29.5545 18.1276 30.453 17.3828 31.1979C16.6379 31.9427 15.7395 32.516 14.7502 32.878C13.761 33.2399 12.7047 33.3817 11.655 33.2934L11.685 33.3234C10.4292 33.2054 9.16756 33.4777 8.07221 34.1032C6.97687 34.7287 6.10112 35.6767 5.56444 36.8182C5.02774 37.9597 4.85621 39.2389 5.07326 40.4814C5.29031 41.7239 5.88537 42.8692 6.77726 43.761C7.66916 44.653 8.81446 45.248 10.057 45.465C11.2995 45.682 12.5787 45.5105 13.7202 44.9739C14.8616 44.4372 15.8097 43.5615 16.4351 42.4662C17.0606 41.3707 17.333 40.1092 17.215 38.8534L17.2466 38.8834C17.158 37.8335 17.2996 36.7772 17.6615 35.7877C18.0231 34.7984 18.5966 33.8999 19.3415 33.1549C20.0865 32.41 20.985 31.8365 21.9743 31.4749C22.9638 31.113 24.0201 30.9714 25.07 31.06Z" fill="#CCCCCC"/>
<path d="M13.9 27.715C14.5317 27.0796 15.0154 26.3126 15.3164 25.4688C15.6175 24.625 15.7286 23.725 15.6417 22.8333L15.6733 22.8633C15.5847 21.8133 15.7263 20.7565 16.0883 19.7668C16.4503 18.7771 17.024 17.8785 17.7694 17.1335C18.5147 16.3885 19.4135 15.8152 20.4034 15.4536C21.3932 15.092 22.45 14.9508 23.5 15.04L23.4684 15.01C24.7237 15.1276 25.9849 14.8551 27.0797 14.2297C28.1745 13.6043 29.0497 12.6564 29.5862 11.5154C30.1225 10.3743 30.2939 9.09551 30.0769 7.85346C29.8599 6.61141 29.2649 5.46655 28.3734 4.57498C27.4819 3.68341 26.3369 3.08855 25.0949 2.87151C23.8529 2.65446 22.574 2.82583 21.433 3.3622C20.2919 3.89856 19.344 4.77385 18.7187 5.86868C18.0932 6.96351 17.8207 8.22461 17.9384 9.47998L17.9084 9.44998C17.997 10.4997 17.8554 11.5562 17.4935 12.5456C17.1317 13.535 16.5584 14.4335 15.8135 15.1784C15.0685 15.9234 14.17 16.4967 13.1806 16.8585C12.1912 17.2203 11.1348 17.362 10.085 17.2733L10.115 17.3033C9.08931 17.2113 8.05696 17.3798 7.11366 17.793C6.17036 18.2061 5.34661 18.8508 4.71876 19.6671C4.09091 20.4833 3.67928 21.445 3.52198 22.4626C3.36469 23.4805 3.46684 24.5215 3.81896 25.4891C4.17108 26.457 4.76179 27.3201 5.53634 27.9988C6.31089 28.6776 7.24423 29.1498 8.24986 29.3718C9.25548 29.5936 10.3009 29.5581 11.2891 29.2686C12.2774 28.979 13.1766 28.4446 13.9033 27.715H13.9Z" fill="#CCCCCC"/>
<path d="M65.5283 11.0917H70.4783V35.18H65.5283V11.0917Z" fill="#CCCCCC"/>
<path d="M73.2817 26.9317C73.2748 25.2007 73.7818 23.5064 74.7385 22.0637C75.6952 20.6211 77.0585 19.4947 78.6558 18.8276C80.2532 18.1602 82.0125 17.982 83.7112 18.3155C85.4098 18.649 86.9713 19.479 88.1978 20.7007C89.4243 21.9222 90.2607 23.4804 90.601 25.1777C90.9413 26.8751 90.7702 28.6352 90.1093 30.2352C89.4485 31.8351 88.3277 33.2031 86.8888 34.1654C85.4498 35.1279 83.7578 35.6417 82.0267 35.6417C80.8777 35.6549 79.7375 35.4387 78.6728 35.006C77.6082 34.5734 76.6405 33.9329 75.8263 33.122C75.012 32.311 74.3677 31.3459 73.9308 30.2831C73.4938 29.2202 73.2732 28.0809 73.2817 26.9317ZM85.8217 26.9317C85.801 26.1856 85.5608 25.4621 85.1313 24.8516C84.7017 24.2412 84.1017 23.7709 83.4063 23.4997C82.7108 23.2284 81.951 23.1681 81.2215 23.3264C80.492 23.4847 79.8253 23.8544 79.3048 24.3896C78.7845 24.9246 78.4332 25.6012 78.2953 26.3349C78.1573 27.0684 78.2385 27.8264 78.529 28.5141C78.8195 29.2017 79.3062 29.7884 79.9282 30.2009C80.5503 30.6134 81.2803 30.8334 82.0267 30.8334C82.5378 30.8471 83.0463 30.7545 83.5202 30.5619C83.9938 30.3692 84.4225 30.0806 84.779 29.7141C85.1355 29.3474 85.4123 28.9109 85.5917 28.4321C85.7712 27.9532 85.8495 27.4424 85.8217 26.9317Z" fill="#CCCCCC"/>
<path d="M110.5 18.6817V34.3483C110.5 39.8917 106.177 42.235 101.788 42.235C100.243 42.3507 98.6962 42.0385 97.3167 41.333C95.9373 40.6273 94.7788 39.5555 93.9683 38.235L98.1917 35.7933C98.5323 36.4817 99.0752 37.0495 99.7473 37.421C100.42 37.7923 101.189 37.9497 101.953 37.8717C102.442 37.9393 102.939 37.8963 103.409 37.7458C103.878 37.5953 104.308 37.3412 104.666 37.0023C105.024 36.6633 105.301 36.2483 105.477 35.7877C105.653 35.3272 105.723 34.833 105.682 34.3417V32.8333C105.102 33.5425 104.364 34.106 103.528 34.4785C102.691 34.851 101.778 35.0222 100.863 34.9783C98.6863 34.9097 96.6215 33.9967 95.1058 32.4323C93.5902 30.8682 92.7427 28.7755 92.7427 26.5975C92.7427 24.4195 93.5902 22.3268 95.1058 20.7627C96.6215 19.1983 98.6863 18.2853 100.863 18.2167C101.778 18.1728 102.691 18.344 103.528 18.7165C104.364 19.089 105.102 19.6525 105.682 20.3617V18.6783L110.5 18.6817ZM105.683 26.6C105.717 25.8023 105.51 25.0128 105.091 24.3333C104.672 23.6537 104.059 23.1152 103.331 22.787C102.603 22.4587 101.794 22.3558 101.007 22.4915C100.22 22.6272 99.4922 22.9952 98.9162 23.5483C98.3403 24.1013 97.9432 24.814 97.7757 25.5947C97.6083 26.3753 97.6783 27.1883 97.977 27.9288C98.2755 28.6693 98.7888 29.3037 99.4508 29.75C100.113 30.1963 100.893 30.4343 101.692 30.4333C102.212 30.4697 102.734 30.3967 103.224 30.219C103.714 30.0413 104.162 29.7628 104.538 29.4018C104.914 29.0407 105.21 28.6048 105.407 28.1222C105.605 27.6397 105.699 27.1212 105.683 26.6Z" fill="#CCCCCC"/>
<path d="M113.303 26.9317C113.297 25.2007 113.803 23.5064 114.76 22.0637C115.717 20.6211 117.08 19.4947 118.677 18.8276C120.275 18.1602 122.034 17.982 123.733 18.3155C125.432 18.649 126.993 19.479 128.22 20.7007C129.446 21.9222 130.282 23.4804 130.623 25.1777C130.963 26.8751 130.792 28.6352 130.131 30.2352C129.47 31.8351 128.349 33.2031 126.911 34.1654C125.472 35.1279 123.779 35.6417 122.048 35.6417C120.899 35.6549 119.759 35.4387 118.694 35.006C117.63 34.5734 116.662 33.9329 115.848 33.122C115.034 32.311 114.389 31.3459 113.952 30.2831C113.515 29.2202 113.295 28.0809 113.303 26.9317ZM125.843 26.9317C125.823 26.1856 125.582 25.4621 125.153 24.8516C124.723 24.2412 124.123 23.7709 123.428 23.4997C122.733 23.2284 121.973 23.1681 121.243 23.3264C120.514 23.4847 119.847 23.8544 119.327 24.3896C118.806 24.9246 118.455 25.6012 118.317 26.3349C118.179 27.0684 118.26 27.8264 118.551 28.5141C118.841 29.2017 119.328 29.7884 119.95 30.2009C120.572 30.6134 121.302 30.8334 122.048 30.8334C122.559 30.8471 123.068 30.7545 123.542 30.5619C124.016 30.3692 124.444 30.0806 124.801 29.7141C125.157 29.3474 125.434 28.9109 125.613 28.4321C125.793 27.9532 125.871 27.4424 125.843 26.9317Z" fill="#CCCCCC"/>
<path d="M133.102 14.26C133.102 13.6726 133.276 13.0984 133.602 12.61C133.929 12.1216 134.393 11.7409 134.935 11.5161C135.478 11.2913 136.075 11.2325 136.651 11.3471C137.227 11.4617 137.757 11.7446 138.172 12.1599C138.587 12.5753 138.87 13.1045 138.985 13.6806C139.099 14.2567 139.04 14.8539 138.816 15.3966C138.591 15.9393 138.21 16.4032 137.722 16.7295C137.233 17.0559 136.659 17.23 136.072 17.23C135.287 17.2222 134.536 16.9069 133.98 16.3515C133.425 15.7962 133.11 15.0453 133.102 14.26ZM133.602 18.6817H138.553V35.1817H133.595L133.602 18.6817Z" fill="#CCCCCC"/>
<path d="M159.927 26.9317C159.984 28.0222 159.825 29.1132 159.459 30.142C159.093 31.1708 158.527 32.1172 157.794 32.9267C157.062 33.736 156.176 34.3927 155.188 34.8587C154.201 35.3245 153.131 35.5907 152.04 35.6417C151.123 35.6917 150.206 35.537 149.356 35.1888C148.505 34.8405 147.744 34.3075 147.125 33.6283V41.78H142.175V18.6817H147.125V20.2317C147.744 19.553 148.506 19.0203 149.356 18.6725C150.206 18.3245 151.123 18.17 152.04 18.22C153.131 18.2708 154.201 18.5368 155.189 19.0028C156.177 19.4688 157.063 20.1255 157.796 20.9352C158.529 21.7448 159.094 22.6915 159.46 23.7207C159.826 24.7497 159.984 25.841 159.927 26.9317ZM154.977 26.9317C154.957 26.1595 154.711 25.4102 154.267 24.7773C153.824 24.1447 153.204 23.6567 152.485 23.3747C151.766 23.0925 150.98 23.0287 150.225 23.1913C149.47 23.3538 148.779 23.7355 148.24 24.2885C147.701 24.8417 147.336 25.5413 147.193 26.3005C147.049 27.0595 147.133 27.8438 147.433 28.5557C147.733 29.2675 148.237 29.8748 148.88 30.302C149.524 30.729 150.279 30.9568 151.052 30.9567C151.582 30.9803 152.111 30.8915 152.605 30.6962C153.098 30.501 153.545 30.2035 153.916 29.8235C154.286 29.4433 154.572 28.9893 154.755 28.491C154.938 27.9927 155.014 27.4612 154.977 26.9317Z" fill="#CCCCCC"/>
<path d="M175.202 30.23C175.202 34.025 171.903 35.6417 168.34 35.6417C166.9 35.772 165.454 35.4677 164.19 34.7675C162.925 34.0675 161.899 33.0042 161.245 31.715L165.533 29.2734C165.707 29.8692 166.079 30.3877 166.589 30.7419C167.098 31.0962 167.715 31.265 168.333 31.22C169.52 31.22 170.115 30.8567 170.115 30.1984C170.115 28.3817 161.997 29.34 161.997 23.6317C161.997 20.0334 165.033 18.22 168.465 18.22C169.755 18.1792 171.032 18.4852 172.163 19.106C173.295 19.727 174.24 20.64 174.898 21.75L170.675 24.0267C170.49 23.5945 170.182 23.2264 169.788 22.9682C169.395 22.71 168.935 22.5734 168.465 22.575C167.607 22.575 167.078 22.9084 167.078 23.4984C167.085 25.38 175.202 24.125 175.202 30.23Z" fill="#CCCCCC"/>
<path d="M193.283 18.6816V35.1816H188.333V33.63C187.762 34.3146 187.037 34.8541 186.217 35.2041C185.397 35.5541 184.507 35.7046 183.617 35.6433C180.283 35.6433 177.45 33.2683 177.45 28.81V18.6816H182.4V28.085C182.358 28.478 182.403 28.8753 182.532 29.2491C182.658 29.6231 182.867 29.9648 183.14 30.2503C183.413 30.5358 183.745 30.7583 184.113 30.9025C184.48 31.0466 184.875 31.109 185.27 31.085C187.085 31.085 188.338 30.03 188.338 27.6866V18.6866L193.283 18.6816Z" fill="#CCCCCC"/>
<path d="M221.667 25.05V35.18H216.717V25.4783C216.717 23.8283 215.925 22.7733 214.342 22.7733C212.692 22.7733 211.767 23.9283 211.767 25.875V35.18H206.818V25.4783C206.818 23.8283 206.027 22.7733 204.442 22.7733C202.792 22.7733 201.868 23.9283 201.868 25.875V35.18H196.918V18.68H201.868V20.1966C202.382 19.5238 203.055 18.9901 203.827 18.6446C204.6 18.299 205.447 18.1525 206.29 18.2183C207.137 18.1768 207.98 18.3556 208.738 18.7371C209.495 19.1185 210.14 19.6898 210.612 20.395C211.16 19.6571 211.887 19.0705 212.723 18.6898C213.56 18.3091 214.48 18.147 215.397 18.2183C219.185 18.22 221.667 20.925 221.667 25.05Z" fill="#CCCCCC"/>
<path d="M225.853 18.5799C227.882 18.5799 229.527 16.9353 229.527 14.9066C229.527 12.8779 227.882 11.2333 225.853 11.2333C223.825 11.2333 222.18 12.8779 222.18 14.9066C222.18 16.9353 223.825 18.5799 225.853 18.5799Z" fill="#CCCCCC"/>
</svg>
