<svg width="189" height="50" viewBox="0 0 189 50" fill="none" xmlns="http://www.w3.org/2000/svg">
<path d="M55.0143 16.0857H59.6V34.6572H55.0143V16.0857ZM61.4286 27.6715C61.4286 23.0715 64.2857 20.3143 68.5714 20.3143C72.8571 20.3143 75.7143 23.0715 75.7143 27.6715C75.7143 32.2715 72.9571 35.0572 68.5714 35.0572C64.1857 35.0572 61.4286 32.3715 61.4286 27.6715ZM71.1714 27.6715C71.1714 25.1429 70.1857 23.6572 68.6143 23.6572C67.0429 23.6572 66.0714 25.0857 66.0714 27.6715C66.0714 30.2572 67.0429 31.6715 68.6143 31.6715C70.1857 31.6715 71.2 30.2572 71.2 27.6857L71.1714 27.6715ZM77.5429 35.6143H81.9714C82.173 36.091 82.5251 36.4889 82.974 36.7467C83.4229 37.0047 83.9437 37.1087 84.4571 37.0429C86.2143 37.0429 87.1286 36.1 87.1286 34.7V32.1286H87.1429C86.7644 32.9293 86.1524 33.5966 85.3876 34.0429C84.6226 34.4892 83.7404 34.6933 82.8571 34.6286C79.5 34.6286 77.2714 32.0715 77.2714 27.6715C77.2714 23.2715 79.4 20.5286 82.9857 20.5286C83.8916 20.4802 84.7903 20.7137 85.5577 21.1973C86.3253 21.6809 86.924 22.3906 87.2714 23.2286H87.1429V20.6429H91.6857V34.5572C91.6857 37.9143 88.7143 40.0143 84.3429 40.0143C80.3714 40 77.8286 38.1857 77.5714 35.6286L77.5429 35.6143ZM87.1429 27.6715C87.1429 25.4286 86.1143 24.0143 84.4857 24.0143C82.8571 24.0143 81.8571 25.4429 81.8571 27.6715C81.8571 29.9 82.8429 31.2143 84.4857 31.2143C86.1286 31.2143 87.1429 30 87.1429 27.6715ZM93.5 27.6715C93.5 23.0715 96.3571 20.3143 100.643 20.3143C104.929 20.3143 107.786 23.0715 107.786 27.6715C107.786 32.2715 105.014 35.0572 100.643 35.0572C96.2714 35.0572 93.5286 32.3715 93.5286 27.6715H93.5ZM103.243 27.6715C103.243 25.1429 102.243 23.6572 100.686 23.6572C99.1286 23.6572 98.1428 25.0857 98.1428 27.6715C98.1428 30.2572 99.1143 31.6715 100.686 31.6715C102.257 31.6715 103.271 30.2572 103.271 27.6857L103.243 27.6715ZM109.643 17.2572C109.623 16.79 109.743 16.3276 109.988 15.9295C110.233 15.5312 110.592 15.2155 111.018 15.0227C111.444 14.8299 111.918 14.769 112.378 14.8479C112.839 14.9266 113.266 15.1415 113.604 15.4647C113.941 15.7882 114.175 16.205 114.274 16.662C114.372 17.119 114.332 17.5952 114.158 18.029C113.984 18.463 113.684 18.835 113.297 19.0972C112.91 19.3593 112.453 19.4996 111.986 19.5C111.687 19.5076 111.39 19.4557 111.111 19.3476C110.832 19.2393 110.578 19.0767 110.363 18.8695C110.147 18.6622 109.975 18.4142 109.857 18.1397C109.738 17.8655 109.675 17.5703 109.671 17.2715L109.643 17.2572ZM109.643 20.6286H114.286V34.7143H109.714L109.643 20.6286ZM130.986 27.6715C130.986 32.2572 128.929 34.9143 125.429 34.9143C124.533 34.9696 123.641 34.7485 122.875 34.281C122.108 33.8135 121.504 33.122 121.143 32.3H121.057V39.2429H116.471V20.6715H121.029V23.1857H121.114C121.463 22.3476 122.061 21.6372 122.828 21.1515C123.595 20.6657 124.493 20.4283 125.4 20.4715C129 20.4429 131.071 23.0857 131.071 27.6857L130.986 27.6715ZM126.314 27.6715C126.314 25.4429 125.271 24 123.657 24C122.043 24 121.029 25.4286 121.014 27.6715C121 29.9143 122.043 31.3286 123.657 31.3286C125.271 31.3286 126.4 30 126.4 27.6857L126.314 27.6715ZM138.814 20.3C142.657 20.3 145.043 22.1143 145.071 25.0286H140.886C140.886 24.0143 140.043 23.3857 138.786 23.3857C137.529 23.3857 136.929 23.8715 136.929 24.6C136.929 25.3286 137.457 25.5572 138.514 25.7715L141.457 26.3715C144.314 26.9715 145.457 28.1143 145.457 30.2429C145.457 33.1 142.814 35.0429 138.886 35.0429C134.957 35.0429 132.4 33.1572 132.214 30.2857H136.657C136.786 31.3286 137.614 31.9429 138.957 31.9429C140.3 31.9429 140.929 31.5143 140.929 30.7572C140.929 30 140.5 29.8715 139.4 29.6429L136.743 29.0857C133.986 28.5 132.543 27.0572 132.543 24.9C132.629 22.1 135.029 20.3143 138.9 20.3143L138.814 20.3ZM160.814 34.7H156.371V32.0572H156.286C156.037 32.9387 155.496 33.7092 154.75 34.2415C154.004 34.7739 153.1 35.0363 152.186 34.9857C151.496 35.0082 150.807 34.8845 150.169 34.6225C149.53 34.3606 148.953 33.9665 148.477 33.466C148 32.9655 147.636 32.3699 147.406 31.7185C147.176 31.067 147.086 30.3742 147.143 29.6857V20.6429H151.729V28.7C151.729 30.3572 152.6 31.2572 154.029 31.2572C154.364 31.2546 154.694 31.1802 154.999 31.039C155.303 30.8977 155.573 30.6929 155.79 30.4383C156.009 30.1837 156.17 29.8853 156.263 29.5633C156.354 29.2412 156.377 28.903 156.329 28.5715V20.6429H160.9L160.814 34.7ZM163.029 20.6286H167.486V23.3429H167.586C167.831 22.4733 168.36 21.71 169.086 21.1723C169.813 20.6347 170.697 20.353 171.6 20.3715C172.507 20.2926 173.411 20.5549 174.134 21.107C174.859 21.6592 175.35 22.4616 175.514 23.3572H175.714C176 22.4567 176.574 21.6759 177.35 21.136C178.124 20.596 179.057 20.3273 180 20.3715C180.627 20.3476 181.253 20.4565 181.834 20.6909C182.417 20.9252 182.943 21.2799 183.379 21.7317C183.814 22.1835 184.149 22.7222 184.361 23.3125C184.576 23.9027 184.661 24.5313 184.614 25.1572V34.7143H180V26.3286C180 24.9 179.329 24.1 178.029 24.1C177.74 24.0953 177.454 24.153 177.19 24.269C176.926 24.3852 176.691 24.557 176.5 24.7727C176.309 24.9886 176.166 25.243 176.081 25.519C175.999 25.795 175.976 26.0857 176.014 26.3715V34.7143H171.643V26.2857C171.643 24.8572 170.943 24.1 169.686 24.1C169.394 24.0977 169.106 24.1577 168.84 24.276C168.573 24.3945 168.336 24.5683 168.141 24.7862C167.949 25.004 167.804 25.2607 167.719 25.539C167.631 25.8175 167.606 26.111 167.643 26.4V34.7143H163.057L163.029 20.6286Z" fill="#CCCCCC"/>
<path d="M45.9429 17.3C45.943 14.4567 45.0844 11.6797 43.4796 9.33263C41.8747 6.98557 39.5983 5.17793 36.9487 4.1465C34.2991 3.11506 31.3997 2.90791 28.6304 3.55218C25.861 4.19646 23.3509 5.66211 21.4286 7.75717H3.60003V45.3857H41.2429V27.8C42.7203 26.4786 43.9026 24.8605 44.7124 23.0512C45.5223 21.2419 45.9416 19.2823 45.9429 17.3ZM38.7 17.3C38.7029 18.6625 38.3014 19.9952 37.5466 21.1295C36.7916 22.2636 35.7173 23.1485 34.4593 23.6717C33.2013 24.1952 31.8164 24.3336 30.4797 24.0695C29.1431 23.8055 27.9149 23.1507 26.9504 22.1883C25.986 21.2259 25.3289 19.999 25.062 18.6629C24.7951 17.3269 24.9307 15.9416 25.4514 14.6826C25.9721 13.4235 26.8547 12.3473 27.9873 11.5901C29.12 10.8328 30.4519 10.4286 31.8143 10.4286C33.638 10.4286 35.3873 11.1521 36.6781 12.4403C37.9691 13.7286 38.6963 15.4763 38.7 17.3ZM34 38.1429H10.8429V15H17.9C17.7637 15.7593 17.692 16.5287 17.6857 17.3C17.6896 21.046 19.1793 24.6375 21.8281 27.2863C24.4769 29.935 28.0683 31.4249 31.8143 31.4286C32.5467 31.4247 33.2776 31.3626 34 31.2429V38.1429Z" fill="#CCCCCC"/>
</svg>
