<svg width="205" height="50" viewBox="0 0 205 50" fill="none" xmlns="http://www.w3.org/2000/svg">
<path d="M60.0945 35.3078H74.6701V30.9176H65.275V14.381H60.0945V35.3078Z" fill="#CCCCCC"/>
<path d="M83.3057 32.381C81.2277 32.381 80.1448 30.5664 80.1448 27.8444C80.1448 25.1225 81.2277 23.2786 83.3057 23.2786C85.3838 23.2786 86.496 25.1225 86.496 27.8444C86.496 30.5664 85.3838 32.381 83.3057 32.381ZM83.335 35.7761C88.1643 35.7761 91.3253 32.3517 91.3253 27.8444C91.3253 23.3371 88.1643 19.9127 83.335 19.9127C78.535 19.9127 75.3155 23.3371 75.3155 27.8444C75.3155 32.3517 78.535 35.7761 83.335 35.7761Z" fill="#CCCCCC"/>
<path d="M99.6843 40.4883C101.909 40.4883 103.87 39.9907 105.187 38.82C106.387 37.7371 107.177 36.0981 107.177 33.8444V20.3224H102.611V21.9322H102.553C101.675 20.6737 100.328 19.8834 98.3379 19.8834C94.6209 19.8834 92.0452 22.9859 92.0452 27.3761C92.0452 31.9712 95.177 34.4883 98.5428 34.4883C100.357 34.4883 101.499 33.7566 102.377 32.7615H102.494V34.2542C102.494 36.0688 101.645 37.1224 99.6257 37.1224C98.0452 37.1224 97.255 36.4493 96.9916 35.659H92.3672C92.8355 38.7907 95.5574 40.4883 99.6843 40.4883ZM99.655 30.9468C97.8696 30.9468 96.6989 29.4834 96.6989 27.2298C96.6989 24.9468 97.8696 23.4834 99.655 23.4834C101.645 23.4834 102.699 25.181 102.699 27.2005C102.699 29.3078 101.733 30.9468 99.655 30.9468Z" fill="#CCCCCC"/>
<path d="M116.565 32.381C114.487 32.381 113.404 30.5664 113.404 27.8444C113.404 25.1225 114.487 23.2786 116.565 23.2786C118.643 23.2786 119.755 25.1225 119.755 27.8444C119.755 30.5664 118.643 32.381 116.565 32.381ZM116.595 35.7761C121.424 35.7761 124.584 32.3517 124.584 27.8444C124.584 23.3371 121.424 19.9127 116.595 19.9127C111.795 19.9127 108.575 23.3371 108.575 27.8444C108.575 32.3517 111.795 35.7761 116.595 35.7761Z" fill="#CCCCCC"/>
<path d="M125.978 35.3078H130.749V20.3224H125.978V35.3078ZM125.978 18.2444H130.749V14.381H125.978V18.2444Z" fill="#CCCCCC"/>
<path d="M132.818 40.2542H137.589V33.7566H137.648C138.584 35.0151 139.96 35.7761 141.891 35.7761C145.813 35.7761 148.418 32.6737 148.418 27.8151C148.418 23.3078 145.989 19.8834 142.009 19.8834C139.96 19.8834 138.496 20.7907 137.472 22.1371H137.384V20.3224H132.818V40.2542ZM140.662 32.0883C138.613 32.0883 137.443 30.42 137.443 27.9907C137.443 25.5615 138.496 23.7176 140.574 23.7176C142.623 23.7176 143.589 25.4151 143.589 27.9907C143.589 30.5371 142.477 32.0883 140.662 32.0883Z" fill="#CCCCCC"/>
<path d="M156.185 35.7761C160.107 35.7761 163.005 34.0785 163.005 30.8005C163.005 26.9663 159.902 26.2932 157.268 25.8542C155.366 25.5029 153.668 25.3566 153.668 24.3029C153.668 23.3664 154.576 22.9273 155.746 22.9273C157.063 22.9273 157.971 23.3371 158.146 24.6834H162.537C162.302 21.7273 160.02 19.8834 155.776 19.8834C152.234 19.8834 149.307 21.5224 149.307 24.6834C149.307 28.1956 152.088 28.8981 154.693 29.3371C156.683 29.6883 158.498 29.8346 158.498 31.181C158.498 32.1468 157.59 32.6737 156.156 32.6737C154.576 32.6737 153.58 31.942 153.405 30.4493H148.898C149.044 33.7566 151.795 35.7761 156.185 35.7761Z" fill="#CCCCCC"/>
<path d="M169.485 35.7468C171.563 35.7468 172.88 34.9273 173.963 33.4639H174.051V35.3078H178.617V20.3224H173.846V28.6931C173.846 30.4785 172.851 31.7078 171.212 31.7078C169.69 31.7078 168.959 30.8004 168.959 29.1614V20.3224H164.217V30.1565C164.217 33.4931 166.032 35.7468 169.485 35.7468Z" fill="#CCCCCC"/>
<path d="M180.693 35.3078H185.463V26.9078C185.463 25.1224 186.341 23.8639 187.834 23.8639C189.268 23.8639 189.941 24.8005 189.941 26.4103V35.3078H194.712V26.9078C194.712 25.1224 195.561 23.8639 197.083 23.8639C198.517 23.8639 199.19 24.8005 199.19 26.4103V35.3078H203.961V25.5615C203.961 22.1956 202.263 19.8834 198.868 19.8834C196.937 19.8834 195.327 20.7029 194.156 22.5176H194.098C193.337 20.9078 191.844 19.8834 189.883 19.8834C187.717 19.8834 186.283 20.9078 185.346 22.459H185.259V20.3224H180.693V35.3078Z" fill="#CCCCCC"/>
<path d="M30.9877 2.4108L26.1913 1.12561L22.1494 16.2105L18.5002 2.59176L13.7038 3.87695L17.6465 18.5909L7.82617 8.77071L4.31497 12.2819L15.0866 23.0536L1.67225 19.4592L0.387054 24.2556L15.0439 28.1829C14.8761 27.4591 14.7873 26.705 14.7873 25.9301C14.7873 20.4452 19.2337 15.9989 24.7185 15.9989C30.2034 15.9989 34.6498 20.4452 34.6498 25.9301C34.6498 26.7 34.5621 27.4495 34.3963 28.169L47.7167 31.7381L49.0018 26.9418L34.2867 22.9989L47.702 19.4042L46.4167 14.6079L31.7022 18.5506L41.5224 8.73039L38.0112 5.21918L27.389 15.8414L30.9877 2.4108Z" fill="#CCCCCC"/>
<path d="M34.3833 28.2249C33.9721 29.9634 33.1039 31.5252 31.9127 32.7766L41.5627 42.4267L45.0739 38.9155L34.3833 28.2249Z" fill="#CCCCCC"/>
<path d="M31.8151 32.8776C30.6095 34.1089 29.086 35.0278 27.3774 35.5013L30.8889 48.6062L35.6852 47.321L31.8151 32.8776Z" fill="#CCCCCC"/>
<path d="M27.1983 35.5493C26.4056 35.7531 25.5747 35.8613 24.7185 35.8613C23.8012 35.8613 22.9129 35.737 22.0696 35.5042L18.555 48.621L23.3513 49.9061L27.1983 35.5493Z" fill="#CCCCCC"/>
<path d="M21.9001 35.4558C20.2177 34.9587 18.7212 34.0281 17.5402 32.7932L7.86649 42.467L11.3777 45.9782L21.9001 35.4558Z" fill="#CCCCCC"/>
<path d="M17.4595 32.7076C16.2988 31.465 15.4533 29.924 15.0509 28.2123L1.68701 31.7931L2.97219 36.5895L17.4595 32.7076Z" fill="#CCCCCC"/>
</svg>
