<svg width="40" height="40" viewBox="0 0 40 40" fill="none" xmlns="http://www.w3.org/2000/svg">
<g clip-path="url(#clip0_410_172)">
<path d="M28.3333 6.66663C30.9855 6.66663 33.529 7.72019 35.4044 9.59556C37.2798 11.4709 38.3333 14.0145 38.3333 16.6666V23.3333C38.3333 25.9855 37.2798 28.529 35.4044 30.4044C33.529 32.2797 30.9855 33.3333 28.3333 33.3333H11.6667C9.01449 33.3333 6.47095 32.2797 4.59559 30.4044C2.72022 28.529 1.66666 25.9855 1.66666 23.3333V16.6666C1.66666 14.0145 2.72022 11.4709 4.59559 9.59556C6.47095 7.72019 9.01449 6.66663 11.6667 6.66663H28.3333ZM16.6667 15H13.3333V18.3333H9.99999V21.6666H13.3317L13.3333 25H16.6667L16.665 21.6666H20V18.3333H16.6667V15ZM30 21.6666H26.6667V25H30V21.6666ZM26.6667 15H23.3333V18.3333H26.6667V15Z" fill="#232835"/>
</g>
<defs>
<clipPath id="clip0_410_172">
<rect width="40" height="40" fill="white"/>
</clipPath>
</defs>
</svg>
